<?xml version="1.0" standalone="no"?>
<!DOCTYPE svg PUBLIC "-//W3C//DTD SVG 20010904//EN"
 "http://www.w3.org/TR/2001/REC-SVG-20010904/DTD/svg10.dtd">
<svg version="1.0" xmlns="http://www.w3.org/2000/svg"
 width="500.000000pt" height="500.000000pt" viewBox="0 0 500.000000 500.000000"
 preserveAspectRatio="xMidYMid meet">

<g transform="translate(0.000000,500.000000) scale(0.100000,-0.100000)"
fill="#000000" stroke="none">
<path d="M2495 4320 c-11 -4 -45 -18 -75 -29 -31 -12 -67 -34 -81 -49 -45 -48
-128 -175 -122 -186 3 -6 3 -8 -2 -4 -7 6 -117 -158 -303 -452 -36 -57 -60
-105 -56 -111 4 -7 3 -9 -3 -6 -6 4 -34 -32 -63 -81 -29 -48 -89 -145 -132
-215 -43 -70 -76 -132 -73 -138 4 -5 1 -8 -7 -7 -7 2 -12 -5 -12 -15 1 -10 -1
-16 -4 -13 -5 6 -71 -97 -75 -117 -1 -7 -8 -18 -15 -26 -28 -30 -43 -61 -36
-73 4 -7 4 -10 -1 -6 -5 5 -14 0 -21 -10 -7 -11 -43 -26 -88 -37 -41 -10 -73
-22 -70 -27 3 -4 -1 -5 -9 -2 -35 13 -118 -46 -186 -133 -33 -42 -33 -43 -21
-92 8 -33 20 -55 36 -65 27 -18 48 -21 39 -5 -4 6 2 5 14 -3 17 -10 25 -10 41
0 38 23 22 -12 -85 -189 -58 -96 -105 -178 -105 -182 0 -5 -10 -23 -23 -40
-46 -63 -138 -237 -131 -249 5 -7 3 -8 -6 -3 -10 6 -12 4 -7 -9 4 -9 3 -15 -2
-11 -23 13 -148 -279 -182 -423 -34 -146 -24 -193 50 -243 52 -34 116 -45 168
-29 57 19 153 71 147 81 -3 5 2 6 10 3 9 -3 16 -1 16 5 0 6 5 11 10 11 28 0
185 124 175 139 -3 5 3 7 13 4 12 -3 29 7 49 31 17 19 33 33 35 31 2 -3 67 59
143 135 77 77 137 140 133 140 -4 0 13 19 38 42 102 94 338 439 316 463 -4 5
-2 5 4 2 17 -10 75 148 81 220 7 74 -8 135 -48 198 l-28 44 37 10 c20 6 87 22
147 37 61 15 116 31 123 37 13 10 16 66 4 82 -4 6 -45 22 -92 37 -84 27 -86
27 -165 12 -44 -8 -130 -23 -191 -34 -109 -20 -144 -19 -144 4 0 6 18 38 40
71 22 33 40 65 40 71 0 6 9 19 20 29 12 11 18 25 15 34 -3 8 -3 12 1 8 11 -10
56 61 48 76 -4 6 -4 9 1 5 12 -11 58 60 49 75 -4 6 -4 9 1 5 10 -9 87 110 79
123 -3 5 -1 8 5 7 6 -2 32 32 58 74 27 42 82 130 123 195 41 65 74 124 74 130
-1 7 2 11 6 8 5 -3 28 27 53 67 24 40 89 143 142 228 54 85 98 161 98 168 0 6
3 10 5 7 9 -8 82 119 82 141 0 32 -56 45 -105 24z m-789 -1835 c47 -50 61
-119 41 -205 -9 -35 -13 -69 -10 -74 4 -5 1 -6 -5 -2 -11 7 -16 -8 -15 -42 1
-7 -2 -11 -5 -8 -3 3 -23 -27 -45 -66 -85 -159 -222 -326 -438 -538 -48 -47
-112 -105 -143 -130 -30 -25 -53 -50 -51 -57 2 -7 -1 -15 -7 -19 -6 -4 -8 -3
-4 4 11 19 -10 22 -30 4 -54 -47 -119 -66 -131 -37 -7 20 28 116 79 218 21 43
36 83 32 90 -4 7 -3 9 1 4 12 -10 58 70 49 86 -4 6 -4 9 1 5 10 -10 136 212
128 226 -3 6 -2 8 2 3 12 -10 58 70 49 86 -4 6 -3 9 1 4 8 -6 56 62 56 80 0 5
8 17 18 28 10 11 60 92 111 181 l93 161 71 15 c105 23 115 22 152 -17z"/>
<path d="M3065 3189 c-73 -9 -174 -46 -258 -94 -90 -53 -208 -145 -200 -158 3
-6 1 -7 -5 -3 -10 6 -139 -115 -198 -185 -112 -133 -191 -319 -201 -469 -7
-112 7 -170 58 -236 97 -126 256 -123 444 6 40 28 44 34 33 48 -12 15 -11 16
4 4 15 -12 22 -11 48 8 28 20 43 39 18 24 -7 -4 -8 -3 -4 5 4 6 11 9 16 6 5
-3 17 5 27 18 10 12 33 33 51 46 20 14 31 29 28 38 -3 8 -2 12 3 9 11 -7 87
83 83 98 -2 7 0 8 7 1 6 -7 5 -31 -6 -75 -9 -40 -13 -85 -9 -117 6 -55 33
-123 48 -123 5 0 6 -4 3 -10 -3 -5 1 -10 9 -10 9 0 15 -6 13 -12 -7 -37 171
-82 233 -59 16 6 43 16 60 22 16 6 27 15 24 20 -3 5 1 6 9 3 34 -13 284 213
313 282 30 70 11 204 -28 204 -6 0 -63 -53 -127 -118 -115 -116 -181 -173
-211 -180 -43 -11 -93 -13 -101 -5 -5 5 -12 29 -15 55 -10 74 40 234 142 456
19 41 34 75 34 77 0 8 98 179 137 238 29 44 43 75 40 87 -3 11 -1 18 4 14 12
-7 11 0 -2 29 -15 33 -49 47 -116 47 -51 0 -58 -3 -95 -40 l-40 -40 -20 25
c-43 56 -136 79 -253 64z m205 -180 c0 -6 -9 -22 -20 -36 -11 -14 -17 -30 -13
-36 3 -6 1 -7 -5 -3 -13 8 -64 -63 -55 -78 3 -6 3 -8 -2 -4 -11 10 -78 -80
-69 -94 4 -7 3 -8 -4 -4 -6 4 -21 -9 -35 -29 -43 -64 -149 -178 -250 -270 -55
-49 -115 -105 -135 -122 -19 -18 -36 -33 -38 -33 -2 0 -25 -16 -50 -36 -75
-56 -122 -78 -141 -62 -37 30 8 164 106 316 22 34 39 62 37 62 -3 0 12 19 32
42 87 100 171 184 224 223 31 24 54 46 50 50 -4 4 -2 6 3 4 15 -4 65 23 60 32
-3 4 0 11 6 15 8 4 9 3 5 -4 -4 -7 -3 -12 3 -12 5 0 12 4 15 9 11 16 139 61
201 70 33 5 63 9 68 10 4 0 7 -4 7 -10z"/>
<path d="M3921 2234 c-13 -10 -21 -12 -17 -6 13 22 -12 12 -55 -21 -78 -59
-114 -130 -110 -217 4 -111 158 -122 260 -19 41 42 81 123 81 167 0 36 -27 85
-41 76 -5 -3 -8 0 -7 6 2 7 -4 14 -12 15 -8 2 -28 6 -45 10 -21 4 -38 1 -54
-11z"/>
</g>
</svg>
